<?xml version="1.0" encoding="UTF-8" standalone="no"?>
<!DOCTYPE svg PUBLIC "-//W3C//DTD SVG 1.1//EN"
 "http://www.w3.org/Graphics/SVG/1.1/DTD/svg11.dtd">
<!-- Generated by graphviz version 7.0.5 (20221223.1930)
 -->
<!-- Title: G Pages: 1 -->
<svg width="256pt" height="566pt"
 viewBox="0.00 0.00 255.65 566.00" xmlns="http://www.w3.org/2000/svg" xmlns:xlink="http://www.w3.org/1999/xlink">
<g id="graph0" class="graph" transform="scale(1 1) rotate(0) translate(4 562)">
<title>G</title>
<polygon fill="white" stroke="none" points="-4,4 -4,-562 251.65,-562 251.65,4 -4,4"/>
<!-- S0 -->
<g id="node1" class="node">
<title>S0</title>
<ellipse fill="none" stroke="black" cx="81.65" cy="-540" rx="27" ry="18"/>
<text text-anchor="middle" x="81.65" y="-536.3" font-family="Times,serif" font-size="14.00">S0</text>
</g>
<!-- S1 -->
<g id="node2" class="node">
<title>S1</title>
<ellipse fill="none" stroke="black" cx="124.65" cy="-453" rx="27" ry="18"/>
<text text-anchor="middle" x="124.65" y="-449.3" font-family="Times,serif" font-size="14.00">S1</text>
</g>
<!-- S0&#45;&gt;S1 -->
<g id="edge1" class="edge">
<title>S0&#45;&gt;S1:n</title>
<path fill="none" stroke="black" d="M97.17,-524.96C107.27,-514.51 119.29,-499.18 123.28,-482.29"/>
<polygon fill="black" stroke="black" points="126.74,-482.85 124.46,-472.5 119.79,-482.01 126.74,-482.85"/>
<text text-anchor="middle" x="148.15" y="-492.8" font-family="Times,serif" font-size="14.00">lambda</text>
</g>
<!-- Sm+1 -->
<g id="node3" class="node">
<title>Sm+1</title>
<ellipse fill="none" stroke="black" cx="39.65" cy="-453" rx="39.79" ry="18"/>
<text text-anchor="middle" x="39.65" y="-449.3" font-family="Times,serif" font-size="14.00">Sm+1</text>
</g>
<!-- S0&#45;&gt;Sm+1 -->
<g id="edge2" class="edge">
<title>S0&#45;&gt;Sm+1:n</title>
<path fill="none" stroke="black" d="M66.48,-524.89C56.61,-514.41 44.88,-499.05 40.98,-482.23"/>
<polygon fill="black" stroke="black" points="44.48,-482.02 39.82,-472.5 37.53,-482.85 44.48,-482.02"/>
<text text-anchor="middle" x="60.15" y="-492.8" font-family="Times,serif" font-size="14.00">nu</text>
</g>
<!-- Sm+2 -->
<g id="node4" class="node">
<title>Sm+2</title>
<ellipse fill="none" stroke="black" cx="56.65" cy="-366" rx="39.79" ry="18"/>
<text text-anchor="middle" x="56.65" y="-362.3" font-family="Times,serif" font-size="14.00">Sm+2</text>
</g>
<!-- S1&#45;&gt;Sm+2 -->
<g id="edge5" class="edge">
<title>S1&#45;&gt;Sm+2:e</title>
<path fill="none" stroke="black" d="M126.32,-434.6C127.55,-413.2 126.54,-378.5 108.63,-368.67"/>
<polygon fill="black" stroke="black" points="109.66,-365.32 99.12,-366.36 108.01,-372.12 109.66,-365.32"/>
<text text-anchor="middle" x="135.15" y="-405.8" font-family="Times,serif" font-size="14.00">nu</text>
</g>
<!-- S2 -->
<g id="node5" class="node">
<title>S2</title>
<ellipse fill="none" stroke="black" cx="157.65" cy="-366" rx="27" ry="18"/>
<text text-anchor="middle" x="157.65" y="-362.3" font-family="Times,serif" font-size="14.00">S2</text>
</g>
<!-- S1&#45;&gt;S2 -->
<g id="edge4" class="edge">
<title>S1&#45;&gt;S2:n</title>
<path fill="none" stroke="black" d="M137.12,-436.54C144.64,-425.95 153.35,-411.04 156.46,-395.44"/>
<polygon fill="black" stroke="black" points="159.94,-395.81 157.49,-385.51 152.98,-395.09 159.94,-395.81"/>
<text text-anchor="middle" x="181.15" y="-405.8" font-family="Times,serif" font-size="14.00">lambda</text>
</g>
<!-- Sm+1&#45;&gt;Sm+2 -->
<g id="edge3" class="edge">
<title>Sm+1&#45;&gt;Sm+2</title>
<path fill="none" stroke="black" d="M38.28,-434.67C37.93,-424.94 38.21,-412.67 40.65,-402 41.21,-399.51 41.97,-396.99 42.84,-394.49"/>
<polygon fill="black" stroke="black" points="46.04,-395.93 46.63,-385.35 39.57,-393.25 46.04,-395.93"/>
<text text-anchor="middle" x="67.15" y="-405.8" font-family="Times,serif" font-size="14.00">lambda</text>
</g>
<!-- Sm+3 -->
<g id="node6" class="node">
<title>Sm+3</title>
<ellipse fill="none" stroke="black" cx="73.65" cy="-279" rx="39.79" ry="18"/>
<text text-anchor="middle" x="73.65" y="-275.3" font-family="Times,serif" font-size="14.00">Sm+3</text>
</g>
<!-- Sm+2&#45;&gt;Sm+3 -->
<g id="edge6" class="edge">
<title>Sm+2&#45;&gt;Sm+3</title>
<path fill="none" stroke="black" d="M55.28,-347.67C54.93,-337.94 55.21,-325.67 57.65,-315 58.21,-312.51 58.97,-309.99 59.84,-307.49"/>
<polygon fill="black" stroke="black" points="63.04,-308.93 63.63,-298.35 56.57,-306.25 63.04,-308.93"/>
<text text-anchor="middle" x="84.15" y="-318.8" font-family="Times,serif" font-size="14.00">lambda</text>
</g>
<!-- S2&#45;&gt;Sm+3 -->
<g id="edge8" class="edge">
<title>S2&#45;&gt;Sm+3:e</title>
<path fill="none" stroke="black" d="M151.18,-348.42C143.76,-329.87 131.46,-300.62 122.47,-286.76"/>
<polygon fill="black" stroke="black" points="125.28,-284.63 115.72,-280.07 120.35,-289.59 125.28,-284.63"/>
<text text-anchor="middle" x="152.15" y="-318.8" font-family="Times,serif" font-size="14.00">nu</text>
</g>
<!-- S3 -->
<g id="node7" class="node">
<title>S3</title>
<ellipse fill="none" stroke="black" cx="174.65" cy="-279" rx="27" ry="18"/>
<text text-anchor="middle" x="174.65" y="-275.3" font-family="Times,serif" font-size="14.00">S3</text>
</g>
<!-- S2&#45;&gt;S3 -->
<g id="edge7" class="edge">
<title>S2&#45;&gt;S3:n</title>
<path fill="none" stroke="black" d="M164.27,-348.24C168.07,-337.41 172.4,-322.66 174.01,-308.07"/>
<polygon fill="black" stroke="black" points="177.48,-308.7 174.56,-298.51 170.49,-308.29 177.48,-308.7"/>
<text text-anchor="middle" x="199.15" y="-318.8" font-family="Times,serif" font-size="14.00">lambda</text>
</g>
<!-- Sm+4 -->
<g id="node8" class="node">
<title>Sm+4</title>
<ellipse fill="none" stroke="black" cx="106.65" cy="-192" rx="39.79" ry="18"/>
<text text-anchor="middle" x="106.65" y="-188.3" font-family="Times,serif" font-size="14.00">Sm+4</text>
</g>
<!-- Sm+3&#45;&gt;Sm+4 -->
<g id="edge9" class="edge">
<title>Sm+3&#45;&gt;Sm+4</title>
<path fill="none" stroke="black" d="M71.05,-260.74C70.27,-250.82 70.52,-238.32 74.65,-228 76.21,-224.1 78.41,-220.37 80.95,-216.89"/>
<polygon fill="black" stroke="black" points="83.43,-219.37 87.23,-209.48 78.09,-214.84 83.43,-219.37"/>
<text text-anchor="middle" x="101.15" y="-231.8" font-family="Times,serif" font-size="14.00">lambda</text>
</g>
<!-- S3&#45;&gt;Sm+4 -->
<g id="edge11" class="edge">
<title>S3&#45;&gt;Sm+4:e</title>
<path fill="none" stroke="black" d="M169.27,-260.91C167.48,-255.21 165.48,-248.83 163.65,-243 163.02,-241.01 156.83,-216.6 152.18,-202.29"/>
<polygon fill="black" stroke="black" points="155.49,-201.12 148.26,-193.38 149.09,-203.95 155.49,-201.12"/>
<text text-anchor="middle" x="173.15" y="-231.8" font-family="Times,serif" font-size="14.00">nu</text>
</g>
<!-- ... -->
<g id="node9" class="node">
<title>...</title>
<ellipse fill="none" stroke="black" cx="191.65" cy="-192" rx="27" ry="18"/>
<text text-anchor="middle" x="191.65" y="-188.3" font-family="Times,serif" font-size="14.00">...</text>
</g>
<!-- S3&#45;&gt;... -->
<g id="edge10" class="edge">
<title>S3&#45;&gt;...:n</title>
<path fill="none" stroke="black" d="M181.27,-261.24C185.07,-250.41 189.4,-235.66 191.01,-221.07"/>
<polygon fill="black" stroke="black" points="194.48,-221.7 191.56,-211.51 187.49,-221.29 194.48,-221.7"/>
<text text-anchor="middle" x="216.15" y="-231.8" font-family="Times,serif" font-size="14.00">lambda</text>
</g>
<!-- .... -->
<g id="node10" class="node">
<title>....</title>
<ellipse fill="none" stroke="black" cx="110.65" cy="-105" rx="27" ry="18"/>
<text text-anchor="middle" x="110.65" y="-101.3" font-family="Times,serif" font-size="14.00">....</text>
</g>
<!-- Sm+4&#45;&gt;.... -->
<g id="edge12" class="edge">
<title>Sm+4&#45;&gt;....</title>
<path fill="none" stroke="black" d="M107.46,-173.8C107.98,-162.58 108.69,-147.67 109.3,-134.69"/>
<polygon fill="black" stroke="black" points="112.78,-135.13 109.75,-124.98 105.79,-134.8 112.78,-135.13"/>
<text text-anchor="middle" x="136.15" y="-144.8" font-family="Times,serif" font-size="14.00">lambda</text>
</g>
<!-- Sm -->
<g id="node11" class="node">
<title>Sm</title>
<ellipse fill="none" stroke="black" cx="187.65" cy="-105" rx="27" ry="18"/>
<text text-anchor="middle" x="187.65" y="-101.3" font-family="Times,serif" font-size="14.00">Sm</text>
</g>
<!-- ...&#45;&gt;Sm -->
<g id="edge13" class="edge">
<title>...&#45;&gt;Sm:n</title>
<path fill="none" stroke="black" d="M190.07,-173.69C189.18,-162.85 188.19,-148.31 187.81,-134.17"/>
<polygon fill="black" stroke="black" points="191.31,-134.46 187.67,-124.51 184.31,-134.56 191.31,-134.46"/>
<text text-anchor="middle" x="215.15" y="-144.8" font-family="Times,serif" font-size="14.00">lambda</text>
</g>
<!-- S2m+1 -->
<g id="node12" class="node">
<title>S2m+1</title>
<ellipse fill="none" stroke="black" cx="125.65" cy="-18" rx="45.49" ry="18"/>
<text text-anchor="middle" x="125.65" y="-14.3" font-family="Times,serif" font-size="14.00">S2m+1</text>
</g>
<!-- ....&#45;&gt;S2m+1 -->
<g id="edge15" class="edge">
<title>....&#45;&gt;S2m+1</title>
<path fill="none" stroke="black" d="M109.47,-86.71C109.19,-77 109.47,-64.72 111.65,-54 112.12,-51.64 112.75,-49.25 113.48,-46.86"/>
<polygon fill="black" stroke="black" points="116.76,-48.08 116.88,-37.49 110.18,-45.7 116.76,-48.08"/>
<text text-anchor="middle" x="138.15" y="-57.8" font-family="Times,serif" font-size="14.00">lambda</text>
</g>
<!-- Sm&#45;&gt;S2m+1 -->
<g id="edge14" class="edge">
<title>Sm&#45;&gt;S2m+1:e</title>
<path fill="none" stroke="black" d="M191.45,-87.01C195.4,-65.86 199.04,-31.27 183.42,-20.98"/>
<polygon fill="black" stroke="black" points="184.68,-17.69 174.11,-18.4 182.81,-24.44 184.68,-17.69"/>
<text text-anchor="middle" x="221.15" y="-57.8" font-family="Times,serif" font-size="14.00">lambda</text>
</g>
</g>
</svg>
