<?xml version="1.0" encoding="UTF-8" standalone="no"?>
<!DOCTYPE svg PUBLIC "-//W3C//DTD SVG 1.1//EN"
 "http://www.w3.org/Graphics/SVG/1.1/DTD/svg11.dtd">
<!-- Generated by graphviz version 7.0.5 (20221223.1930)
 -->
<!-- Title: G Pages: 1 -->
<svg width="745pt" height="225pt"
 viewBox="0.00 0.00 744.57 225.00" xmlns="http://www.w3.org/2000/svg" xmlns:xlink="http://www.w3.org/1999/xlink">
<g id="graph0" class="graph" transform="scale(1 1) rotate(0) translate(4 221)">
<title>G</title>
<polygon fill="white" stroke="none" points="-4,4 -4,-221 740.57,-221 740.57,4 -4,4"/>
<g id="clust1" class="cluster">
<title>cluster_A</title>
<polygon fill="none" stroke="teal" points="8,-122 8,-209 723.73,-209 723.73,-122 8,-122"/>
</g>
<g id="clust2" class="cluster">
<title>cluster_B</title>
<polygon fill="none" stroke="green" points="121,-8 121,-60 728.57,-60 728.57,-8 121,-8"/>
</g>
<!-- S0 -->
<g id="node1" class="node">
<title>S0</title>
<ellipse fill="none" stroke="black" cx="43" cy="-148" rx="27" ry="18"/>
<text text-anchor="middle" x="43" y="-144.3" font-family="Times,serif" font-size="14.00">S0</text>
</g>
<!-- S1 -->
<g id="node2" class="node">
<title>S1</title>
<ellipse fill="none" stroke="black" cx="168.65" cy="-148" rx="27" ry="18"/>
<text text-anchor="middle" x="168.65" y="-144.3" font-family="Times,serif" font-size="14.00">S1</text>
</g>
<!-- S0&#45;&gt;S1 -->
<g id="edge1" class="edge">
<title>S0&#45;&gt;S1</title>
<path fill="none" stroke="black" d="M70.22,-148C87.6,-148 110.67,-148 130,-148"/>
<polygon fill="black" stroke="black" points="129.95,-151.5 139.95,-148 129.95,-144.5 129.95,-151.5"/>
<text text-anchor="middle" x="99.5" y="-151.8" font-family="Times,serif" font-size="14.00">a</text>
</g>
<!-- Sm+1 -->
<g id="node3" class="node">
<title>Sm+1</title>
<ellipse fill="none" stroke="black" cx="168.65" cy="-34" rx="39.79" ry="18"/>
<text text-anchor="middle" x="168.65" y="-30.3" font-family="Times,serif" font-size="14.00">Sm+1</text>
</g>
<!-- S0&#45;&gt;Sm+1 -->
<g id="edge3" class="edge">
<title>S0&#45;&gt;Sm+1</title>
<path fill="none" stroke="black" d="M59.66,-133.56C80.35,-114.48 117.08,-80.62 141.89,-57.75"/>
<polygon fill="black" stroke="black" points="144.03,-60.53 149.01,-51.18 139.29,-55.39 144.03,-60.53"/>
<text text-anchor="middle" x="99.5" y="-107.8" font-family="Times,serif" font-size="14.00">nu</text>
</g>
<!-- S1&#45;&gt;S0 -->
<g id="edge2" class="edge">
<title>S1&#45;&gt;S0</title>
<path fill="none" stroke="black" d="M145.04,-157.1C129.13,-162.39 107.31,-167.4 88,-164 84.32,-163.35 80.54,-162.42 76.82,-161.33"/>
<polygon fill="black" stroke="black" points="78,-158.03 67.4,-158.17 75.77,-164.67 78,-158.03"/>
<text text-anchor="middle" x="99.5" y="-168.8" font-family="Times,serif" font-size="14.00">mu</text>
</g>
<!-- Sm+2 -->
<g id="node4" class="node">
<title>Sm+2</title>
<ellipse fill="none" stroke="black" cx="306.94" cy="-34" rx="39.79" ry="18"/>
<text text-anchor="middle" x="306.94" y="-30.3" font-family="Times,serif" font-size="14.00">Sm+2</text>
</g>
<!-- S1&#45;&gt;Sm+2 -->
<g id="edge8" class="edge">
<title>S1&#45;&gt;Sm+2</title>
<path fill="none" stroke="black" d="M188.14,-135C204.59,-123.22 229.1,-105.14 249.29,-88 260.19,-78.75 271.7,-67.99 281.47,-58.52"/>
<polygon fill="black" stroke="black" points="283.78,-61.15 288.48,-51.65 278.88,-56.15 283.78,-61.15"/>
<text text-anchor="middle" x="237.79" y="-108.8" font-family="Times,serif" font-size="14.00">nu</text>
</g>
<!-- S2 -->
<g id="node5" class="node">
<title>S2</title>
<ellipse fill="none" stroke="black" cx="306.94" cy="-148" rx="27" ry="18"/>
<text text-anchor="middle" x="306.94" y="-144.3" font-family="Times,serif" font-size="14.00">S2</text>
</g>
<!-- S1&#45;&gt;S2 -->
<g id="edge6" class="edge">
<title>S1&#45;&gt;S2</title>
<path fill="none" stroke="black" d="M195.93,-148C216.48,-148 245.32,-148 268.32,-148"/>
<polygon fill="black" stroke="black" points="268.23,-151.5 278.23,-148 268.23,-144.5 268.23,-151.5"/>
<text text-anchor="middle" x="237.79" y="-151.8" font-family="Times,serif" font-size="14.00">a</text>
</g>
<!-- Sm+1&#45;&gt;S0 -->
<g id="edge4" class="edge">
<title>Sm+1&#45;&gt;S0</title>
<path fill="none" stroke="black" d="M133.84,-42.88C118.49,-48.22 100.93,-56.3 88,-68 72.48,-82.05 61.26,-102.89 54.04,-119.78"/>
<polygon fill="black" stroke="black" points="50.9,-118.21 50.43,-128.8 57.4,-120.82 50.9,-118.21"/>
<text text-anchor="middle" x="99.5" y="-71.8" font-family="Times,serif" font-size="14.00">g</text>
</g>
<!-- Sm+1&#45;&gt;Sm+2 -->
<g id="edge5" class="edge">
<title>Sm+1&#45;&gt;Sm+2</title>
<path fill="none" stroke="black" d="M208.7,-34C223.24,-34 239.96,-34 255.39,-34"/>
<polygon fill="black" stroke="black" points="255.36,-37.5 265.36,-34 255.36,-30.5 255.36,-37.5"/>
<text text-anchor="middle" x="237.79" y="-37.8" font-family="Times,serif" font-size="14.00">a</text>
</g>
<!-- Sm+2&#45;&gt;S1 -->
<g id="edge9" class="edge">
<title>Sm+2&#45;&gt;S1</title>
<path fill="none" stroke="black" d="M273.13,-43.91C257.83,-49.6 240.02,-57.87 226.29,-69 208.71,-83.26 194,-104.27 183.98,-121.04"/>
<polygon fill="black" stroke="black" points="181.05,-119.1 179.11,-129.52 187.12,-122.59 181.05,-119.1"/>
<text text-anchor="middle" x="237.79" y="-72.8" font-family="Times,serif" font-size="14.00">g</text>
</g>
<!-- Sm+3 -->
<g id="node6" class="node">
<title>Sm+3</title>
<ellipse fill="none" stroke="black" cx="445.23" cy="-34" rx="39.79" ry="18"/>
<text text-anchor="middle" x="445.23" y="-30.3" font-family="Times,serif" font-size="14.00">Sm+3</text>
</g>
<!-- Sm+2&#45;&gt;Sm+3 -->
<g id="edge10" class="edge">
<title>Sm+2&#45;&gt;Sm+3</title>
<path fill="none" stroke="black" d="M347,-34C361.54,-34 378.26,-34 393.68,-34"/>
<polygon fill="black" stroke="black" points="393.66,-37.5 403.66,-34 393.66,-30.5 393.66,-37.5"/>
<text text-anchor="middle" x="376.09" y="-37.8" font-family="Times,serif" font-size="14.00">a</text>
</g>
<!-- S2&#45;&gt;S1 -->
<g id="edge7" class="edge">
<title>S2&#45;&gt;S1</title>
<path fill="none" stroke="black" d="M282.55,-156.17C272.45,-159.29 260.43,-162.46 249.29,-164 234.08,-166.11 217.4,-163.53 203.25,-159.87"/>
<polygon fill="black" stroke="black" points="204.56,-156.6 193.98,-157.19 202.61,-163.32 204.56,-156.6"/>
<text text-anchor="middle" x="237.79" y="-167.8" font-family="Times,serif" font-size="14.00">mu</text>
</g>
<!-- S2&#45;&gt;Sm+3 -->
<g id="edge13" class="edge">
<title>S2&#45;&gt;Sm+3</title>
<path fill="none" stroke="black" d="M326.44,-135C342.88,-123.22 367.39,-105.14 387.59,-88 398.48,-78.75 409.99,-67.99 419.76,-58.52"/>
<polygon fill="black" stroke="black" points="422.08,-61.15 426.77,-51.65 417.18,-56.15 422.08,-61.15"/>
<text text-anchor="middle" x="376.09" y="-108.8" font-family="Times,serif" font-size="14.00">nu</text>
</g>
<!-- S3 -->
<g id="node7" class="node">
<title>S3</title>
<ellipse fill="none" stroke="black" cx="445.23" cy="-148" rx="27" ry="18"/>
<text text-anchor="middle" x="445.23" y="-144.3" font-family="Times,serif" font-size="14.00">S3</text>
</g>
<!-- S2&#45;&gt;S3 -->
<g id="edge11" class="edge">
<title>S2&#45;&gt;S3</title>
<path fill="none" stroke="black" d="M334.22,-148C354.77,-148 383.62,-148 406.62,-148"/>
<polygon fill="black" stroke="black" points="406.52,-151.5 416.52,-148 406.52,-144.5 406.52,-151.5"/>
<text text-anchor="middle" x="376.09" y="-151.8" font-family="Times,serif" font-size="14.00">a</text>
</g>
<!-- Sm+3&#45;&gt;S2 -->
<g id="edge14" class="edge">
<title>Sm+3&#45;&gt;S2</title>
<path fill="none" stroke="black" d="M411.43,-43.91C396.13,-49.6 378.31,-57.87 364.59,-69 347,-83.26 332.29,-104.27 322.27,-121.04"/>
<polygon fill="black" stroke="black" points="319.34,-119.1 317.41,-129.52 325.42,-122.59 319.34,-119.1"/>
<text text-anchor="middle" x="376.09" y="-72.8" font-family="Times,serif" font-size="14.00">g</text>
</g>
<!-- .... -->
<g id="node8" class="node">
<title>....</title>
<ellipse fill="none" stroke="black" cx="570.88" cy="-34" rx="27" ry="18"/>
<text text-anchor="middle" x="570.88" y="-30.3" font-family="Times,serif" font-size="14.00">....</text>
</g>
<!-- Sm+3&#45;&gt;.... -->
<g id="edge15" class="edge">
<title>Sm+3&#45;&gt;....</title>
<path fill="none" stroke="black" d="M485.35,-34C500.32,-34 517.34,-34 532.17,-34"/>
<polygon fill="black" stroke="black" points="531.99,-37.5 541.99,-34 531.99,-30.5 531.99,-37.5"/>
<text text-anchor="middle" x="514.38" y="-37.8" font-family="Times,serif" font-size="14.00">a</text>
</g>
<!-- S3&#45;&gt;S2 -->
<g id="edge12" class="edge">
<title>S3&#45;&gt;S2</title>
<path fill="none" stroke="black" d="M420.84,-156.17C410.75,-159.29 398.72,-162.46 387.59,-164 372.37,-166.11 355.69,-163.53 341.54,-159.87"/>
<polygon fill="black" stroke="black" points="342.85,-156.6 332.27,-157.19 340.91,-163.32 342.85,-156.6"/>
<text text-anchor="middle" x="376.09" y="-167.8" font-family="Times,serif" font-size="14.00">mu</text>
</g>
<!-- S3&#45;&gt;.... -->
<g id="edge18" class="edge">
<title>S3&#45;&gt;....</title>
<path fill="none" stroke="black" d="M465.27,-135.6C482.07,-124.21 506.8,-106.37 525.88,-88 535.03,-79.19 544.07,-68.53 551.56,-59.01"/>
<polygon fill="black" stroke="black" points="554.25,-61.25 557.56,-51.18 548.7,-56.99 554.25,-61.25"/>
<text text-anchor="middle" x="514.38" y="-110.8" font-family="Times,serif" font-size="14.00">nu</text>
</g>
<!-- ... -->
<g id="node9" class="node">
<title>...</title>
<ellipse fill="none" stroke="black" cx="570.88" cy="-148" rx="27" ry="18"/>
<text text-anchor="middle" x="570.88" y="-144.3" font-family="Times,serif" font-size="14.00">...</text>
</g>
<!-- S3&#45;&gt;... -->
<g id="edge16" class="edge">
<title>S3&#45;&gt;...</title>
<path fill="none" stroke="black" d="M472.45,-148C489.83,-148 512.9,-148 532.23,-148"/>
<polygon fill="black" stroke="black" points="532.18,-151.5 542.18,-148 532.18,-144.5 532.18,-151.5"/>
<text text-anchor="middle" x="514.38" y="-151.8" font-family="Times,serif" font-size="14.00">a</text>
</g>
<!-- ....&#45;&gt;S3 -->
<g id="edge19" class="edge">
<title>....&#45;&gt;S3</title>
<path fill="none" stroke="black" d="M546.84,-42.82C533.1,-48.83 515.86,-57.73 502.88,-69 485.78,-83.85 471.05,-104.83 460.9,-121.44"/>
<polygon fill="black" stroke="black" points="458.02,-119.42 455.95,-129.82 464.05,-122.98 458.02,-119.42"/>
<text text-anchor="middle" x="514.38" y="-72.8" font-family="Times,serif" font-size="14.00">g</text>
</g>
<!-- S2m -->
<g id="node11" class="node">
<title>S2m</title>
<ellipse fill="none" stroke="black" cx="688.73" cy="-34" rx="31.7" ry="18"/>
<text text-anchor="middle" x="688.73" y="-30.3" font-family="Times,serif" font-size="14.00">S2m</text>
</g>
<!-- ....&#45;&gt;S2m -->
<g id="edge24" class="edge">
<title>....&#45;&gt;S2m</title>
<path fill="none" stroke="black" d="M598.17,-34C612.13,-34 629.64,-34 645.46,-34"/>
<polygon fill="black" stroke="black" points="645.1,-37.5 655.1,-34 645.1,-30.5 645.1,-37.5"/>
<text text-anchor="middle" x="627.38" y="-37.8" font-family="Times,serif" font-size="14.00">a</text>
</g>
<!-- ...&#45;&gt;S3 -->
<g id="edge17" class="edge">
<title>...&#45;&gt;S3</title>
<path fill="none" stroke="black" d="M547.91,-157.69C541,-160.27 533.24,-162.7 525.88,-164 510.64,-166.68 493.84,-164.13 479.62,-160.34"/>
<polygon fill="black" stroke="black" points="480.87,-157.06 470.29,-157.54 478.86,-163.76 480.87,-157.06"/>
<text text-anchor="middle" x="514.38" y="-168.8" font-family="Times,serif" font-size="14.00">mu</text>
</g>
<!-- Sm -->
<g id="node10" class="node">
<title>Sm</title>
<ellipse fill="none" stroke="black" cx="688.73" cy="-148" rx="27" ry="18"/>
<text text-anchor="middle" x="688.73" y="-144.3" font-family="Times,serif" font-size="14.00">Sm</text>
</g>
<!-- ...&#45;&gt;Sm -->
<g id="edge20" class="edge">
<title>...&#45;&gt;Sm</title>
<path fill="none" stroke="black" d="M598.17,-148C613.57,-148 633.28,-148 650.29,-148"/>
<polygon fill="black" stroke="black" points="650.03,-151.5 660.03,-148 650.03,-144.5 650.03,-151.5"/>
<text text-anchor="middle" x="627.38" y="-151.8" font-family="Times,serif" font-size="14.00">a</text>
</g>
<!-- ...&#45;&gt;S2m -->
<g id="edge22" class="edge">
<title>...&#45;&gt;S2m</title>
<path fill="none" stroke="black" d="M588.57,-133.92C602.4,-122.04 622.39,-104.41 638.88,-88 648.25,-78.68 658.12,-67.96 666.51,-58.54"/>
<polygon fill="black" stroke="black" points="669.05,-60.95 673.04,-51.13 663.8,-56.32 669.05,-60.95"/>
<text text-anchor="middle" x="627.38" y="-111.8" font-family="Times,serif" font-size="14.00">nu</text>
</g>
<!-- Sm&#45;&gt;... -->
<g id="edge21" class="edge">
<title>Sm&#45;&gt;...</title>
<path fill="none" stroke="black" d="M665.5,-157.57C651.36,-162.52 632.62,-166.95 615.88,-164 612.2,-163.35 608.42,-162.42 604.69,-161.33"/>
<polygon fill="black" stroke="black" points="605.88,-158.03 595.28,-158.17 603.65,-164.67 605.88,-158.03"/>
<text text-anchor="middle" x="627.38" y="-167.8" font-family="Times,serif" font-size="14.00">mu</text>
</g>
<!-- Sm&#45;&gt;S2m -->
<g id="edge25" class="edge">
<title>Sm&#45;&gt;S2m</title>
<path fill="none" stroke="black" d="M688.73,-129.73C688.73,-111.96 688.73,-84.67 688.73,-63.77"/>
<polygon fill="black" stroke="black" points="692.23,-63.83 688.73,-53.83 685.23,-63.83 692.23,-63.83"/>
<text text-anchor="middle" x="678.23" y="-87.3" font-family="Times,serif" font-size="14.00">nu</text>
</g>
<!-- S2m&#45;&gt;... -->
<g id="edge23" class="edge">
<title>S2m&#45;&gt;...</title>
<path fill="none" stroke="black" d="M660.43,-42.75C645.9,-48.45 628.47,-57.08 615.88,-69 600.91,-83.16 589.73,-103.57 582.38,-120.1"/>
<polygon fill="black" stroke="black" points="579.33,-118.32 578.69,-128.89 585.79,-121.03 579.33,-118.32"/>
<text text-anchor="middle" x="627.38" y="-72.8" font-family="Times,serif" font-size="14.00">g</text>
</g>
</g>
</svg>
