<?xml version="1.0" encoding="UTF-8" standalone="no"?>
<!DOCTYPE svg PUBLIC "-//W3C//DTD SVG 1.1//EN"
 "http://www.w3.org/Graphics/SVG/1.1/DTD/svg11.dtd">
<!-- Generated by graphviz version 7.0.5 (20221223.1930)
 -->
<!-- Title: G Pages: 1 -->
<svg width="237pt" height="305pt"
 viewBox="0.00 0.00 237.00 305.00" xmlns="http://www.w3.org/2000/svg" xmlns:xlink="http://www.w3.org/1999/xlink">
<g id="graph0" class="graph" transform="scale(1 1) rotate(0) translate(4 301)">
<title>G</title>
<polygon fill="white" stroke="none" points="-4,4 -4,-301 233,-301 233,4 -4,4"/>
<!-- S1 -->
<g id="node1" class="node">
<title>S1</title>
<ellipse fill="none" stroke="black" cx="140" cy="-279" rx="27" ry="18"/>
<text text-anchor="middle" x="140" y="-275.3" font-family="Times,serif" font-size="14.00">S1</text>
</g>
<!-- S1&#45;&gt;S1 -->
<g id="edge1" class="edge">
<title>S1&#45;&gt;S1</title>
<path fill="none" stroke="black" d="M164.53,-287.03C175.51,-287.79 185,-285.12 185,-279 185,-275.18 181.29,-272.7 175.83,-271.56"/>
<polygon fill="black" stroke="black" points="176.21,-268.08 166.04,-271.05 175.85,-275.07 176.21,-268.08"/>
<text text-anchor="middle" x="205.5" y="-275.3" font-family="Times,serif" font-size="14.00">0.345</text>
</g>
<!-- S2 -->
<g id="node2" class="node">
<title>S2</title>
<ellipse fill="none" stroke="black" cx="27" cy="-192" rx="27" ry="18"/>
<text text-anchor="middle" x="27" y="-188.3" font-family="Times,serif" font-size="14.00">S2</text>
</g>
<!-- S1&#45;&gt;S2 -->
<g id="edge2" class="edge">
<title>S1&#45;&gt;S2</title>
<path fill="none" stroke="black" d="M122.84,-265.09C104.42,-251.24 74.93,-229.05 53.52,-212.95"/>
<polygon fill="black" stroke="black" points="55.63,-210.16 45.53,-206.94 51.42,-215.75 55.63,-210.16"/>
<text text-anchor="middle" x="107" y="-231.8" font-family="Times,serif" font-size="14.00">0.46</text>
</g>
<!-- S3 -->
<g id="node3" class="node">
<title>S3</title>
<ellipse fill="none" stroke="black" cx="102" cy="-105" rx="27" ry="18"/>
<text text-anchor="middle" x="102" y="-101.3" font-family="Times,serif" font-size="14.00">S3</text>
</g>
<!-- S1&#45;&gt;S3 -->
<g id="edge3" class="edge">
<title>S1&#45;&gt;S3</title>
<path fill="none" stroke="black" d="M136.22,-260.88C129.69,-231.33 116.25,-170.49 108.29,-134.48"/>
<polygon fill="black" stroke="black" points="111.73,-133.79 106.15,-124.78 104.89,-135.3 111.73,-133.79"/>
<text text-anchor="middle" x="144.5" y="-188.3" font-family="Times,serif" font-size="14.00">0.145</text>
</g>
<!-- S4 -->
<g id="node4" class="node">
<title>S4</title>
<ellipse fill="none" stroke="black" cx="102" cy="-18" rx="27" ry="18"/>
<text text-anchor="middle" x="102" y="-14.3" font-family="Times,serif" font-size="14.00">S4</text>
</g>
<!-- S1&#45;&gt;S4 -->
<g id="edge4" class="edge">
<title>S1&#45;&gt;S4</title>
<path fill="none" stroke="black" d="M150.98,-262.16C172.88,-228.46 217.43,-147.78 188,-87 176.7,-63.66 153.07,-45.9 133.43,-34.39"/>
<polygon fill="black" stroke="black" points="135.38,-31.47 124.94,-29.69 131.98,-37.6 135.38,-31.47"/>
<text text-anchor="middle" x="213" y="-144.8" font-family="Times,serif" font-size="14.00">0.05</text>
</g>
<!-- S2&#45;&gt;S2 -->
<g id="edge5" class="edge">
<title>S2&#45;&gt;S2</title>
<path fill="none" stroke="black" d="M51.53,-200.03C62.51,-200.79 72,-198.12 72,-192 72,-188.18 68.29,-185.7 62.83,-184.56"/>
<polygon fill="black" stroke="black" points="63.21,-181.08 53.04,-184.05 62.85,-188.07 63.21,-181.08"/>
<text text-anchor="middle" x="88" y="-188.3" font-family="Times,serif" font-size="14.00">0.35</text>
</g>
<!-- S2&#45;&gt;S3 -->
<g id="edge6" class="edge">
<title>S2&#45;&gt;S3</title>
<path fill="none" stroke="black" d="M40.06,-176.19C51.5,-163.23 68.31,-144.18 81.53,-129.2"/>
<polygon fill="black" stroke="black" points="83.84,-131.87 87.83,-122.06 78.59,-127.24 83.84,-131.87"/>
<text text-anchor="middle" x="85" y="-144.8" font-family="Times,serif" font-size="14.00">0.25</text>
</g>
<!-- S2&#45;&gt;S4 -->
<g id="edge7" class="edge">
<title>S2&#45;&gt;S4</title>
<path fill="none" stroke="black" d="M26.78,-173.59C27.14,-152.23 29.87,-115.35 43,-87 51.16,-69.37 65.31,-52.83 77.71,-40.47"/>
<polygon fill="black" stroke="black" points="80.01,-43.11 84.82,-33.67 75.17,-38.05 80.01,-43.11"/>
<text text-anchor="middle" x="54.5" y="-101.3" font-family="Times,serif" font-size="14.00">0.4</text>
</g>
<!-- S3&#45;&gt;S3 -->
<g id="edge8" class="edge">
<title>S3&#45;&gt;S3</title>
<path fill="none" stroke="black" d="M126.53,-113.03C137.51,-113.79 147,-111.12 147,-105 147,-101.18 143.29,-98.7 137.83,-97.56"/>
<polygon fill="black" stroke="black" points="138.21,-94.08 128.04,-97.05 137.85,-101.07 138.21,-94.08"/>
<text text-anchor="middle" x="163" y="-101.3" font-family="Times,serif" font-size="14.00">0.89</text>
</g>
<!-- S3&#45;&gt;S4 -->
<g id="edge9" class="edge">
<title>S3&#45;&gt;S4</title>
<path fill="none" stroke="black" d="M102,-86.8C102,-75.58 102,-60.67 102,-47.69"/>
<polygon fill="black" stroke="black" points="105.5,-47.98 102,-37.98 98.5,-47.98 105.5,-47.98"/>
<text text-anchor="middle" x="118" y="-57.8" font-family="Times,serif" font-size="14.00">0.11</text>
</g>
<!-- S4&#45;&gt;S4 -->
<g id="edge10" class="edge">
<title>S4&#45;&gt;S4</title>
<path fill="none" stroke="black" d="M126.53,-26.03C137.51,-26.79 147,-24.12 147,-18 147,-14.18 143.29,-11.7 137.83,-10.56"/>
<polygon fill="black" stroke="black" points="138.21,-7.08 128.04,-10.05 137.85,-14.07 138.21,-7.08"/>
<text text-anchor="middle" x="152" y="-14.3" font-family="Times,serif" font-size="14.00">1</text>
</g>
</g>
</svg>
