<?xml version="1.0" encoding="UTF-8" standalone="no"?>
<!DOCTYPE svg PUBLIC "-//W3C//DTD SVG 1.1//EN"
 "http://www.w3.org/Graphics/SVG/1.1/DTD/svg11.dtd">
<!-- Generated by graphviz version 7.0.5 (20221223.1930)
 -->
<!-- Title: D Pages: 1 -->
<svg width="658pt" height="49pt"
 viewBox="0.00 0.00 658.00 48.98" xmlns="http://www.w3.org/2000/svg" xmlns:xlink="http://www.w3.org/1999/xlink">
<g id="graph0" class="graph" transform="scale(1 1) rotate(0) translate(4 44.98)">
<title>D</title>
<polygon fill="white" stroke="none" points="-4,4 -4,-44.98 654,-44.98 654,4 -4,4"/>
<!-- S0 -->
<g id="node1" class="node">
<title>S0</title>
<ellipse fill="none" stroke="black" cx="27" cy="-22.98" rx="27" ry="18"/>
<text text-anchor="middle" x="27" y="-19.28" font-family="Times,serif" font-size="14.00">S0</text>
</g>
<!-- S1 -->
<g id="node2" class="node">
<title>S1</title>
<ellipse fill="none" stroke="black" cx="176" cy="-22.98" rx="27" ry="18"/>
<text text-anchor="middle" x="176" y="-19.28" font-family="Times,serif" font-size="14.00">S1</text>
</g>
<!-- S0&#45;&gt;S1 -->
<g id="edge1" class="edge">
<title>S0&#45;&gt;S1</title>
<path fill="none" stroke="black" d="M54.28,-22.98C77.48,-22.98 111.57,-22.98 137.62,-22.98"/>
<polygon fill="black" stroke="black" points="137.43,-26.48 147.43,-22.98 137.43,-19.48 137.43,-26.48"/>
<text text-anchor="middle" x="101.5" y="-26.78" font-family="Times,serif" font-size="14.00">4a</text>
</g>
<!-- S0&#45;&gt;S1 -->
<g id="edge5" class="edge">
<title>S0&#45;&gt;S1</title>
<path fill="none" stroke="black" d="M59.46,-7.59C63.6,-6.11 67.84,-4.84 72,-3.98 97.68,1.33 105.32,1.33 131,-3.98 138.82,-5.6 146.97,-8.67 154.09,-11.89"/>
<polygon fill="black" stroke="black" points="58.26,-4.31 50.31,-11.32 60.89,-10.79 58.26,-4.31"/>
<text text-anchor="middle" x="101.5" y="-7.78" font-family="Times,serif" font-size="14.00">mu_общ</text>
</g>
<!-- S2 -->
<g id="node3" class="node">
<title>S2</title>
<ellipse fill="none" stroke="black" cx="325" cy="-22.98" rx="27" ry="18"/>
<text text-anchor="middle" x="325" y="-19.28" font-family="Times,serif" font-size="14.00">S2</text>
</g>
<!-- S1&#45;&gt;S2 -->
<g id="edge2" class="edge">
<title>S1&#45;&gt;S2</title>
<path fill="none" stroke="black" d="M203.28,-22.98C226.48,-22.98 260.57,-22.98 286.62,-22.98"/>
<polygon fill="black" stroke="black" points="286.43,-26.48 296.43,-22.98 286.43,-19.48 286.43,-26.48"/>
<text text-anchor="middle" x="250.5" y="-26.78" font-family="Times,serif" font-size="14.00">3a</text>
</g>
<!-- S1&#45;&gt;S2 -->
<g id="edge6" class="edge">
<title>S1&#45;&gt;S2</title>
<path fill="none" stroke="black" d="M208.46,-7.59C212.6,-6.11 216.84,-4.84 221,-3.98 246.68,1.33 254.32,1.33 280,-3.98 287.82,-5.6 295.97,-8.67 303.09,-11.89"/>
<polygon fill="black" stroke="black" points="207.26,-4.31 199.31,-11.32 209.89,-10.79 207.26,-4.31"/>
<text text-anchor="middle" x="250.5" y="-7.78" font-family="Times,serif" font-size="14.00">mu_общ</text>
</g>
<!-- S3 -->
<g id="node4" class="node">
<title>S3</title>
<ellipse fill="none" stroke="black" cx="474" cy="-22.98" rx="27" ry="18"/>
<text text-anchor="middle" x="474" y="-19.28" font-family="Times,serif" font-size="14.00">S3</text>
</g>
<!-- S2&#45;&gt;S3 -->
<g id="edge3" class="edge">
<title>S2&#45;&gt;S3</title>
<path fill="none" stroke="black" d="M352.28,-22.98C375.48,-22.98 409.57,-22.98 435.62,-22.98"/>
<polygon fill="black" stroke="black" points="435.43,-26.48 445.43,-22.98 435.43,-19.48 435.43,-26.48"/>
<text text-anchor="middle" x="399.5" y="-26.78" font-family="Times,serif" font-size="14.00">2a</text>
</g>
<!-- S2&#45;&gt;S3 -->
<g id="edge7" class="edge">
<title>S2&#45;&gt;S3</title>
<path fill="none" stroke="black" d="M357.46,-7.59C361.6,-6.11 365.84,-4.84 370,-3.98 395.68,1.33 403.32,1.33 429,-3.98 436.82,-5.6 444.97,-8.67 452.09,-11.89"/>
<polygon fill="black" stroke="black" points="356.26,-4.31 348.31,-11.32 358.89,-10.79 356.26,-4.31"/>
<text text-anchor="middle" x="399.5" y="-7.78" font-family="Times,serif" font-size="14.00">mu_общ</text>
</g>
<!-- S4 -->
<g id="node5" class="node">
<title>S4</title>
<ellipse fill="none" stroke="black" cx="623" cy="-22.98" rx="27" ry="18"/>
<text text-anchor="middle" x="623" y="-19.28" font-family="Times,serif" font-size="14.00">S4</text>
</g>
<!-- S3&#45;&gt;S4 -->
<g id="edge4" class="edge">
<title>S3&#45;&gt;S4</title>
<path fill="none" stroke="black" d="M501.28,-22.98C524.48,-22.98 558.57,-22.98 584.62,-22.98"/>
<polygon fill="black" stroke="black" points="584.43,-26.48 594.43,-22.98 584.43,-19.48 584.43,-26.48"/>
<text text-anchor="middle" x="548.5" y="-26.78" font-family="Times,serif" font-size="14.00">a</text>
</g>
<!-- S3&#45;&gt;S4 -->
<g id="edge8" class="edge">
<title>S3&#45;&gt;S4</title>
<path fill="none" stroke="black" d="M506.46,-7.59C510.6,-6.11 514.84,-4.84 519,-3.98 544.68,1.33 552.32,1.33 578,-3.98 585.82,-5.6 593.97,-8.67 601.09,-11.89"/>
<polygon fill="black" stroke="black" points="505.26,-4.31 497.31,-11.32 507.89,-10.79 505.26,-4.31"/>
<text text-anchor="middle" x="548.5" y="-7.78" font-family="Times,serif" font-size="14.00">mu_общ</text>
</g>
</g>
</svg>
