<?xml version="1.0" encoding="UTF-8" standalone="no"?>
<!DOCTYPE svg PUBLIC "-//W3C//DTD SVG 1.1//EN"
 "http://www.w3.org/Graphics/SVG/1.1/DTD/svg11.dtd">
<!-- Generated by graphviz version 7.0.5 (20221223.1930)
 -->
<!-- Title: D Pages: 1 -->
<svg width="490pt" height="49pt"
 viewBox="0.00 0.00 490.19 49.25" xmlns="http://www.w3.org/2000/svg" xmlns:xlink="http://www.w3.org/1999/xlink">
<g id="graph0" class="graph" transform="scale(1 1) rotate(0) translate(4 45.25)">
<title>D</title>
<polygon fill="white" stroke="none" points="-4,4 -4,-45.25 486.19,-45.25 486.19,4 -4,4"/>
<!-- S0 -->
<g id="node1" class="node">
<title>S0</title>
<ellipse fill="none" stroke="black" cx="27" cy="-23.25" rx="27" ry="18"/>
<text text-anchor="middle" x="27" y="-19.55" font-family="Times,serif" font-size="14.00">S0</text>
</g>
<!-- S1 -->
<g id="node2" class="node">
<title>S1</title>
<ellipse fill="none" stroke="black" cx="140" cy="-23.25" rx="27" ry="18"/>
<text text-anchor="middle" x="140" y="-19.55" font-family="Times,serif" font-size="14.00">S1</text>
</g>
<!-- S0&#45;&gt;S1 -->
<g id="edge1" class="edge">
<title>S0&#45;&gt;S1</title>
<path fill="none" stroke="black" d="M54.31,-23.25C68.41,-23.25 86.02,-23.25 101.53,-23.25"/>
<polygon fill="black" stroke="black" points="101.37,-26.75 111.37,-23.25 101.37,-19.75 101.37,-26.75"/>
<text text-anchor="middle" x="83.5" y="-27.05" font-family="Times,serif" font-size="14.00">n0</text>
</g>
<!-- S0&#45;&gt;S1 -->
<g id="edge4" class="edge">
<title>S0&#45;&gt;S1</title>
<path fill="none" stroke="black" d="M59.46,-7.86C63.6,-6.38 67.84,-5.11 72,-4.25 82.01,-2.18 84.99,-2.18 95,-4.25 102.82,-5.87 110.97,-8.94 118.09,-12.16"/>
<polygon fill="black" stroke="black" points="58.26,-4.58 50.31,-11.59 60.89,-11.06 58.26,-4.58"/>
<text text-anchor="middle" x="83.5" y="-8.05" font-family="Times,serif" font-size="14.00">m1</text>
</g>
<!-- ... -->
<g id="node3" class="node">
<title>...</title>
<ellipse fill="none" stroke="black" cx="253" cy="-23.25" rx="27" ry="18"/>
<text text-anchor="middle" x="253" y="-19.55" font-family="Times,serif" font-size="14.00">...</text>
</g>
<!-- S1&#45;&gt;... -->
<g id="edge2" class="edge">
<title>S1&#45;&gt;...</title>
<path fill="none" stroke="black" d="M167.31,-23.25C181.41,-23.25 199.02,-23.25 214.53,-23.25"/>
<polygon fill="black" stroke="black" points="214.37,-26.75 224.37,-23.25 214.37,-19.75 214.37,-26.75"/>
<text text-anchor="middle" x="196.5" y="-27.05" font-family="Times,serif" font-size="14.00">n1</text>
</g>
<!-- S1&#45;&gt;... -->
<g id="edge5" class="edge">
<title>S1&#45;&gt;...</title>
<path fill="none" stroke="black" d="M172.46,-7.86C176.6,-6.38 180.84,-5.11 185,-4.25 195.01,-2.18 197.99,-2.18 208,-4.25 215.82,-5.87 223.97,-8.94 231.09,-12.16"/>
<polygon fill="black" stroke="black" points="171.26,-4.58 163.31,-11.59 173.89,-11.06 171.26,-4.58"/>
<text text-anchor="middle" x="196.5" y="-8.05" font-family="Times,serif" font-size="14.00">m2</text>
</g>
<!-- SL_сист -->
<g id="node4" class="node">
<title>SL_сист</title>
<ellipse fill="none" stroke="black" cx="434.1" cy="-23.25" rx="48.19" ry="18"/>
<text text-anchor="middle" x="434.1" y="-19.55" font-family="Times,serif" font-size="14.00">SL_сист</text>
</g>
<!-- ...&#45;&gt;SL_сист -->
<g id="edge3" class="edge">
<title>...&#45;&gt;SL_сист</title>
<path fill="none" stroke="black" d="M280.43,-23.25C305.04,-23.25 342.59,-23.25 374.29,-23.25"/>
<polygon fill="black" stroke="black" points="374.16,-26.75 384.16,-23.25 374.16,-19.75 374.16,-26.75"/>
<text text-anchor="middle" x="333" y="-27.05" font-family="Times,serif" font-size="14.00">nL_сист&#45;1</text>
</g>
<!-- ...&#45;&gt;SL_сист -->
<g id="edge6" class="edge">
<title>...&#45;&gt;SL_сист</title>
<path fill="none" stroke="black" d="M285.46,-7.86C289.6,-6.38 293.84,-5.11 298,-4.25 328.47,2.05 337.2,0.15 368,-4.25 377.91,-5.67 388.41,-8.24 398.02,-11.04"/>
<polygon fill="black" stroke="black" points="284.26,-4.58 276.31,-11.59 286.89,-11.06 284.26,-4.58"/>
<text text-anchor="middle" x="333" y="-8.05" font-family="Times,serif" font-size="14.00">mL_сист</text>
</g>
</g>
</svg>
