<?xml version="1.0" encoding="UTF-8" standalone="no"?>
<!DOCTYPE svg PUBLIC "-//W3C//DTD SVG 1.1//EN"
 "http://www.w3.org/Graphics/SVG/1.1/DTD/svg11.dtd">
<!-- Generated by graphviz version 7.0.5 (20221223.1930)
 -->
<!-- Title: G Pages: 1 -->
<svg width="855pt" height="429pt"
 viewBox="0.00 0.00 854.56 429.00" xmlns="http://www.w3.org/2000/svg" xmlns:xlink="http://www.w3.org/1999/xlink">
<g id="graph0" class="graph" transform="scale(1 1) rotate(0) translate(4 425)">
<title>G</title>
<polygon fill="white" stroke="none" points="-4,4 -4,-425 850.56,-425 850.56,4 -4,4"/>
<g id="clust1" class="cluster">
<title>cluster_A</title>
<polygon fill="none" stroke="green" points="453.78,-8 453.78,-60 838.56,-60 838.56,-8 453.78,-8"/>
</g>
<g id="clust2" class="cluster">
<title>cluster_B</title>
<polygon fill="none" stroke="teal" points="305.19,-132 305.19,-184 698.96,-184 698.96,-132 305.19,-132"/>
</g>
<g id="clust3" class="cluster">
<title>cluster_C</title>
<polygon fill="none" stroke="blue" points="156.59,-256 156.59,-308 550.37,-308 550.37,-256 156.59,-256"/>
</g>
<g id="clust4" class="cluster">
<title>cluster_D</title>
<polygon fill="none" stroke="purple" points="8,-361 8,-413 253.19,-413 253.19,-361 8,-361"/>
</g>
<!-- S4000 -->
<g id="node1" class="node">
<title>S4000</title>
<ellipse fill="none" stroke="black" cx="502.07" cy="-34" rx="40.09" ry="18"/>
<text text-anchor="middle" x="502.07" y="-30.3" font-family="Times,serif" font-size="14.00">S4000</text>
</g>
<!-- S3010 -->
<g id="node2" class="node">
<title>S3010</title>
<ellipse fill="none" stroke="black" cx="650.67" cy="-34" rx="40.09" ry="18"/>
<text text-anchor="middle" x="650.67" y="-30.3" font-family="Times,serif" font-size="14.00">S3010</text>
</g>
<!-- S4000&#45;&gt;S3010 -->
<g id="edge1" class="edge">
<title>S4000&#45;&gt;S3010</title>
<path fill="none" stroke="black" d="M542.36,-34C559.69,-34 580.29,-34 598.78,-34"/>
<polygon fill="black" stroke="black" points="598.76,-37.5 608.76,-34 598.76,-30.5 598.76,-37.5"/>
<text text-anchor="middle" x="576.37" y="-37.8" font-family="Times,serif" font-size="14.00">4a</text>
</g>
<!-- S2110 -->
<g id="node3" class="node">
<title>S2110</title>
<ellipse fill="none" stroke="black" cx="790.26" cy="-34" rx="40.09" ry="18"/>
<text text-anchor="middle" x="790.26" y="-30.3" font-family="Times,serif" font-size="14.00">S2110</text>
</g>
<!-- S3010&#45;&gt;S2110 -->
<g id="edge2" class="edge">
<title>S3010&#45;&gt;S2110</title>
<path fill="none" stroke="black" d="M691.1,-34C705.92,-34 722.99,-34 738.69,-34"/>
<polygon fill="black" stroke="black" points="738.31,-37.5 748.31,-34 738.31,-30.5 738.31,-37.5"/>
<text text-anchor="middle" x="720.46" y="-37.8" font-family="Times,serif" font-size="14.00">3a</text>
</g>
<!-- S3001 -->
<g id="node4" class="node">
<title>S3001</title>
<ellipse fill="none" stroke="black" cx="353.48" cy="-158" rx="40.09" ry="18"/>
<text text-anchor="middle" x="353.48" y="-154.3" font-family="Times,serif" font-size="14.00">S3001</text>
</g>
<!-- S3010&#45;&gt;S3001 -->
<g id="edge3" class="edge">
<title>S3010&#45;&gt;S3001</title>
<path fill="none" stroke="black" d="M620.45,-46.19C582.15,-62.18 512.91,-91.12 453.78,-116 434.11,-124.28 412.27,-133.51 394.09,-141.21"/>
<polygon fill="black" stroke="black" points="392.82,-137.94 384.97,-145.07 395.55,-144.39 392.82,-137.94"/>
<text text-anchor="middle" x="502.07" y="-119.8" font-family="Times,serif" font-size="14.00">(1&#45;p)n</text>
</g>
<!-- S2011 -->
<g id="node7" class="node">
<title>S2011</title>
<ellipse fill="none" stroke="black" cx="502.07" cy="-158" rx="40.09" ry="18"/>
<text text-anchor="middle" x="502.07" y="-154.3" font-family="Times,serif" font-size="14.00">S2011</text>
</g>
<!-- S2110&#45;&gt;S2011 -->
<g id="edge8" class="edge">
<title>S2110&#45;&gt;S2011</title>
<path fill="none" stroke="black" d="M760.53,-46.45C708.9,-68.82 600.41,-115.83 542.1,-141.09"/>
<polygon fill="black" stroke="black" points="541,-137.75 533.21,-144.94 543.78,-144.18 541,-137.75"/>
<text text-anchor="middle" x="650.67" y="-113.8" font-family="Times,serif" font-size="14.00">(1&#45;p)n</text>
</g>
<!-- S3001&#45;&gt;S4000 -->
<g id="edge10" class="edge">
<title>S3001&#45;&gt;S4000</title>
<path fill="none" stroke="black" d="M360.22,-139.78C368.2,-117.43 384.79,-79.93 411.78,-59 423.32,-50.05 437.9,-44.3 451.92,-40.61"/>
<polygon fill="black" stroke="black" points="452.53,-44.06 461.49,-38.41 450.96,-37.24 452.53,-44.06"/>
<text text-anchor="middle" x="427.78" y="-62.8" font-family="Times,serif" font-size="14.00">mu</text>
</g>
<!-- S3001&#45;&gt;S2011 -->
<g id="edge5" class="edge">
<title>S3001&#45;&gt;S2011</title>
<path fill="none" stroke="black" d="M393.77,-158C411.1,-158 431.7,-158 450.19,-158"/>
<polygon fill="black" stroke="black" points="450.17,-161.5 460.17,-158 450.17,-154.5 450.17,-161.5"/>
<text text-anchor="middle" x="427.78" y="-161.8" font-family="Times,serif" font-size="14.00">3a</text>
</g>
<!-- S0112 -->
<g id="node5" class="node">
<title>S0112</title>
<ellipse fill="none" stroke="black" cx="502.07" cy="-282" rx="40.09" ry="18"/>
<text text-anchor="middle" x="502.07" y="-278.3" font-family="Times,serif" font-size="14.00">S0112</text>
</g>
<!-- S0013 -->
<g id="node6" class="node">
<title>S0013</title>
<ellipse fill="none" stroke="black" cx="204.89" cy="-387" rx="40.09" ry="18"/>
<text text-anchor="middle" x="204.89" y="-383.3" font-family="Times,serif" font-size="14.00">S0013</text>
</g>
<!-- S0112&#45;&gt;S0013 -->
<g id="edge4" class="edge">
<title>S0112&#45;&gt;S0013</title>
<path fill="none" stroke="black" d="M478.52,-296.98C441.88,-320.37 366.35,-364.8 295.19,-383 282.87,-386.15 269.29,-387.69 256.52,-388.34"/>
<polygon fill="black" stroke="black" points="256.48,-384.84 246.59,-388.65 256.7,-391.83 256.48,-384.84"/>
<text text-anchor="middle" x="353.48" y="-382.8" font-family="Times,serif" font-size="14.00">(1&#45;p)n</text>
</g>
<!-- S1111 -->
<g id="node8" class="node">
<title>S1111</title>
<ellipse fill="none" stroke="black" cx="650.67" cy="-158" rx="40.09" ry="18"/>
<text text-anchor="middle" x="650.67" y="-154.3" font-family="Times,serif" font-size="14.00">S1111</text>
</g>
<!-- S0112&#45;&gt;S1111 -->
<g id="edge18" class="edge">
<title>S0112&#45;&gt;S1111</title>
<path fill="none" stroke="black" d="M537.45,-273.06C555.22,-267.2 576.46,-258.15 592.37,-245 611.69,-229.04 626.88,-204.86 636.76,-186.04"/>
<polygon fill="black" stroke="black" points="639.78,-187.82 641.14,-177.31 633.52,-184.68 639.78,-187.82"/>
<text text-anchor="middle" x="576.37" y="-266.8" font-family="Times,serif" font-size="14.00">2mu</text>
</g>
<!-- S1012 -->
<g id="node9" class="node">
<title>S1012</title>
<ellipse fill="none" stroke="black" cx="353.48" cy="-282" rx="40.09" ry="18"/>
<text text-anchor="middle" x="353.48" y="-278.3" font-family="Times,serif" font-size="14.00">S1012</text>
</g>
<!-- S0013&#45;&gt;S1012 -->
<g id="edge21" class="edge">
<title>S0013&#45;&gt;S1012</title>
<path fill="none" stroke="black" d="M237.83,-376.51C255.7,-369.74 277.81,-359.79 295.19,-347 309.81,-336.23 323.38,-321.17 333.64,-308.25"/>
<polygon fill="black" stroke="black" points="336.26,-310.59 339.57,-300.52 330.71,-306.33 336.26,-310.59"/>
<text text-anchor="middle" x="279.19" y="-367.8" font-family="Times,serif" font-size="14.00">3mu</text>
</g>
<!-- S2011&#45;&gt;S3010 -->
<g id="edge11" class="edge">
<title>S2011&#45;&gt;S3010</title>
<path fill="none" stroke="black" d="M517.62,-141.14C528.77,-128.64 544.82,-111.51 560.37,-98 561.07,-97.39 593.64,-74.07 619.25,-55.75"/>
<polygon fill="black" stroke="black" points="620.96,-58.83 627.06,-50.16 616.89,-53.13 620.96,-58.83"/>
<text text-anchor="middle" x="576.37" y="-101.8" font-family="Times,serif" font-size="14.00">mu</text>
</g>
<!-- S2011&#45;&gt;S1111 -->
<g id="edge6" class="edge">
<title>S2011&#45;&gt;S1111</title>
<path fill="none" stroke="black" d="M542.36,-158C559.69,-158 580.29,-158 598.78,-158"/>
<polygon fill="black" stroke="black" points="598.76,-161.5 608.76,-158 598.76,-154.5 598.76,-161.5"/>
<text text-anchor="middle" x="576.37" y="-161.8" font-family="Times,serif" font-size="14.00">2a</text>
</g>
<!-- S2002 -->
<g id="node10" class="node">
<title>S2002</title>
<ellipse fill="none" stroke="black" cx="204.89" cy="-282" rx="40.09" ry="18"/>
<text text-anchor="middle" x="204.89" y="-278.3" font-family="Times,serif" font-size="14.00">S2002</text>
</g>
<!-- S2011&#45;&gt;S2002 -->
<g id="edge9" class="edge">
<title>S2011&#45;&gt;S2002</title>
<path fill="none" stroke="black" d="M471.86,-170.19C433.56,-186.18 364.31,-215.12 305.19,-240 285.52,-248.28 263.68,-257.51 245.5,-265.21"/>
<polygon fill="black" stroke="black" points="244.22,-261.94 236.38,-269.07 246.95,-268.39 244.22,-261.94"/>
<text text-anchor="middle" x="353.48" y="-243.8" font-family="Times,serif" font-size="14.00">(1&#45;p)n</text>
</g>
<!-- S1111&#45;&gt;S2110 -->
<g id="edge12" class="edge">
<title>S1111&#45;&gt;S2110</title>
<path fill="none" stroke="black" d="M684.14,-147.78C699.79,-141.74 718.11,-132.91 731.96,-121 750.97,-104.66 766.19,-80.52 776.15,-61.81"/>
<polygon fill="black" stroke="black" points="779.15,-63.64 780.58,-53.14 772.91,-60.45 779.15,-63.64"/>
<text text-anchor="middle" x="720.46" y="-138.8" font-family="Times,serif" font-size="14.00">mu</text>
</g>
<!-- S1111&#45;&gt;S1012 -->
<g id="edge7" class="edge">
<title>S1111&#45;&gt;S1012</title>
<path fill="none" stroke="black" d="M620.45,-170.19C582.15,-186.18 512.91,-215.12 453.78,-240 434.11,-248.28 412.27,-257.51 394.09,-265.21"/>
<polygon fill="black" stroke="black" points="392.82,-261.94 384.97,-269.07 395.55,-268.39 392.82,-261.94"/>
<text text-anchor="middle" x="502.07" y="-243.8" font-family="Times,serif" font-size="14.00">(1&#45;p)n</text>
</g>
<!-- S1012&#45;&gt;S0112 -->
<g id="edge14" class="edge">
<title>S1012&#45;&gt;S0112</title>
<path fill="none" stroke="black" d="M393.77,-282C411.1,-282 431.7,-282 450.19,-282"/>
<polygon fill="black" stroke="black" points="450.17,-285.5 460.17,-282 450.17,-278.5 450.17,-285.5"/>
<text text-anchor="middle" x="427.78" y="-285.8" font-family="Times,serif" font-size="14.00">a</text>
</g>
<!-- S1012&#45;&gt;S2011 -->
<g id="edge17" class="edge">
<title>S1012&#45;&gt;S2011</title>
<path fill="none" stroke="black" d="M369.03,-265.14C380.17,-252.64 396.23,-235.51 411.78,-222 412.48,-221.39 445.05,-198.07 470.65,-179.75"/>
<polygon fill="black" stroke="black" points="472.37,-182.83 478.47,-174.16 468.3,-177.13 472.37,-182.83"/>
<text text-anchor="middle" x="427.78" y="-225.8" font-family="Times,serif" font-size="14.00">2mu</text>
</g>
<!-- S1003 -->
<g id="node11" class="node">
<title>S1003</title>
<ellipse fill="none" stroke="black" cx="56.3" cy="-387" rx="40.09" ry="18"/>
<text text-anchor="middle" x="56.3" y="-383.3" font-family="Times,serif" font-size="14.00">S1003</text>
</g>
<!-- S1012&#45;&gt;S1003 -->
<g id="edge15" class="edge">
<title>S1012&#45;&gt;S1003</title>
<path fill="none" stroke="black" d="M320.68,-292.62C312.39,-295.37 303.46,-298.31 295.19,-301 233.72,-320.95 217.22,-322.61 156.59,-345 136.29,-352.5 114.06,-361.8 95.8,-369.73"/>
<polygon fill="black" stroke="black" points="94.41,-366.52 86.65,-373.74 97.22,-372.93 94.41,-366.52"/>
<text text-anchor="middle" x="204.89" y="-348.8" font-family="Times,serif" font-size="14.00">(1&#45;p)n</text>
</g>
<!-- S2002&#45;&gt;S3001 -->
<g id="edge16" class="edge">
<title>S2002&#45;&gt;S3001</title>
<path fill="none" stroke="black" d="M211.63,-263.78C219.61,-241.43 236.19,-203.93 263.19,-183 274.73,-174.05 289.31,-168.3 303.32,-164.61"/>
<polygon fill="black" stroke="black" points="303.93,-168.06 312.9,-162.41 302.37,-161.24 303.93,-168.06"/>
<text text-anchor="middle" x="279.19" y="-186.8" font-family="Times,serif" font-size="14.00">2mu</text>
</g>
<!-- S2002&#45;&gt;S1012 -->
<g id="edge13" class="edge">
<title>S2002&#45;&gt;S1012</title>
<path fill="none" stroke="black" d="M245.17,-282C262.51,-282 283.11,-282 301.6,-282"/>
<polygon fill="black" stroke="black" points="301.58,-285.5 311.58,-282 301.58,-278.5 301.58,-285.5"/>
<text text-anchor="middle" x="279.19" y="-285.8" font-family="Times,serif" font-size="14.00">2a</text>
</g>
<!-- S1003&#45;&gt;S0013 -->
<g id="edge19" class="edge">
<title>S1003&#45;&gt;S0013</title>
<path fill="none" stroke="black" d="M96.58,-387C113.92,-387 134.51,-387 153,-387"/>
<polygon fill="black" stroke="black" points="152.98,-390.5 162.98,-387 152.98,-383.5 152.98,-390.5"/>
<text text-anchor="middle" x="130.59" y="-390.8" font-family="Times,serif" font-size="14.00">a</text>
</g>
<!-- S1003&#45;&gt;S2002 -->
<g id="edge20" class="edge">
<title>S1003&#45;&gt;S2002</title>
<path fill="none" stroke="black" d="M65.46,-369.32C74.79,-351.04 91.79,-322.98 114.59,-307 126.45,-298.69 141,-293.13 154.89,-289.42"/>
<polygon fill="black" stroke="black" points="155.43,-292.89 164.35,-287.17 153.81,-286.08 155.43,-292.89"/>
<text text-anchor="middle" x="130.59" y="-310.8" font-family="Times,serif" font-size="14.00">3mu</text>
</g>
</g>
</svg>
