<?xml version="1.0" encoding="UTF-8" standalone="no"?>
<!DOCTYPE svg PUBLIC "-//W3C//DTD SVG 1.1//EN"
 "http://www.w3.org/Graphics/SVG/1.1/DTD/svg11.dtd">
<!-- Generated by graphviz version 7.0.5 (20221223.1930)
 -->
<!-- Title: G Pages: 1 -->
<svg width="855pt" height="540pt"
 viewBox="0.00 0.00 854.56 540.00" xmlns="http://www.w3.org/2000/svg" xmlns:xlink="http://www.w3.org/1999/xlink">
<g id="graph0" class="graph" transform="scale(1 1) rotate(0) translate(4 536)">
<title>G</title>
<polygon fill="white" stroke="none" points="-4,4 -4,-536 850.56,-536 850.56,4 -4,4"/>
<g id="clust1" class="cluster">
<title>cluster_A</title>
<polygon fill="none" stroke="green" points="453.78,-8 453.78,-95 838.56,-95 838.56,-8 453.78,-8"/>
</g>
<g id="clust2" class="cluster">
<title>cluster_B</title>
<polygon fill="none" stroke="teal" points="305.19,-172 305.19,-259 698.96,-259 698.96,-172 305.19,-172"/>
</g>
<g id="clust3" class="cluster">
<title>cluster_C</title>
<polygon fill="none" stroke="blue" points="156.59,-336 156.59,-423 550.37,-423 550.37,-336 156.59,-336"/>
</g>
<g id="clust4" class="cluster">
<title>cluster_D</title>
<polygon fill="none" stroke="purple" points="8,-437 8,-524 253.19,-524 253.19,-437 8,-437"/>
</g>
<!-- S4000 -->
<g id="node1" class="node">
<title>S4000</title>
<ellipse fill="none" stroke="black" cx="502.07" cy="-48" rx="40.09" ry="18"/>
<text text-anchor="middle" x="502.07" y="-44.3" font-family="Times,serif" font-size="14.00">S4000</text>
</g>
<!-- S3010 -->
<g id="node2" class="node">
<title>S3010</title>
<ellipse fill="none" stroke="black" cx="650.67" cy="-69" rx="40.09" ry="18"/>
<text text-anchor="middle" x="650.67" y="-65.3" font-family="Times,serif" font-size="14.00">S3010</text>
</g>
<!-- S4000&#45;&gt;S3010 -->
<g id="edge1" class="edge">
<title>S4000&#45;&gt;S3010</title>
<path fill="none" stroke="black" d="M534.46,-37.2C551.75,-32.8 573.49,-29.82 592.37,-35 601.81,-37.59 611.27,-42.18 619.7,-47.17"/>
<polygon fill="black" stroke="black" points="617.81,-50.12 628.13,-52.53 621.57,-44.21 617.81,-50.12"/>
<text text-anchor="middle" x="576.37" y="-38.8" font-family="Times,serif" font-size="14.00">4a</text>
</g>
<!-- S3010&#45;&gt;S4000 -->
<g id="edge3" class="edge">
<title>S3010&#45;&gt;S4000</title>
<path fill="none" stroke="black" d="M612.04,-63.61C593.77,-60.99 571.57,-57.81 552,-55.01"/>
<polygon fill="black" stroke="black" points="552.72,-51.58 542.32,-53.62 551.73,-58.51 552.72,-51.58"/>
<text text-anchor="middle" x="576.37" y="-64.8" font-family="Times,serif" font-size="14.00">pn</text>
</g>
<!-- S2110 -->
<g id="node3" class="node">
<title>S2110</title>
<ellipse fill="none" stroke="black" cx="790.26" cy="-69" rx="40.09" ry="18"/>
<text text-anchor="middle" x="790.26" y="-65.3" font-family="Times,serif" font-size="14.00">S2110</text>
</g>
<!-- S3010&#45;&gt;S2110 -->
<g id="edge2" class="edge">
<title>S3010&#45;&gt;S2110</title>
<path fill="none" stroke="black" d="M671.93,-53.34C682.38,-46.24 695.69,-38.64 708.96,-35 726.81,-30.1 745.92,-37.63 761.02,-46.84"/>
<polygon fill="black" stroke="black" points="758.78,-49.56 769.04,-52.18 762.66,-43.73 758.78,-49.56"/>
<text text-anchor="middle" x="720.46" y="-38.8" font-family="Times,serif" font-size="14.00">3a</text>
</g>
<!-- S3001 -->
<g id="node4" class="node">
<title>S3001</title>
<ellipse fill="none" stroke="black" cx="353.48" cy="-198" rx="40.09" ry="18"/>
<text text-anchor="middle" x="353.48" y="-194.3" font-family="Times,serif" font-size="14.00">S3001</text>
</g>
<!-- S3010&#45;&gt;S3001 -->
<g id="edge5" class="edge">
<title>S3010&#45;&gt;S3001</title>
<path fill="none" stroke="black" d="M621.08,-81.49C567.84,-104.76 453.44,-154.75 393.28,-181.05"/>
<polygon fill="black" stroke="black" points="392.2,-177.7 384.44,-184.91 395.01,-184.11 392.2,-177.7"/>
<text text-anchor="middle" x="502.07" y="-155.8" font-family="Times,serif" font-size="14.00">(1&#45;p)n</text>
</g>
<!-- S2110&#45;&gt;S3010 -->
<g id="edge4" class="edge">
<title>S2110&#45;&gt;S3010</title>
<path fill="none" stroke="black" d="M749.83,-69C735,-69 717.94,-69 702.24,-69"/>
<polygon fill="black" stroke="black" points="702.61,-65.5 692.61,-69 702.61,-72.5 702.61,-65.5"/>
<text text-anchor="middle" x="720.46" y="-72.8" font-family="Times,serif" font-size="14.00">pn</text>
</g>
<!-- S2011 -->
<g id="node7" class="node">
<title>S2011</title>
<ellipse fill="none" stroke="black" cx="502.07" cy="-215" rx="40.09" ry="18"/>
<text text-anchor="middle" x="502.07" y="-211.3" font-family="Times,serif" font-size="14.00">S2011</text>
</g>
<!-- S2110&#45;&gt;S2011 -->
<g id="edge12" class="edge">
<title>S2110&#45;&gt;S2011</title>
<path fill="none" stroke="black" d="M762.91,-82.44C711.53,-108.65 597.88,-166.64 539.4,-196.47"/>
<polygon fill="black" stroke="black" points="538.15,-193.18 530.83,-200.84 541.33,-199.41 538.15,-193.18"/>
<text text-anchor="middle" x="650.67" y="-161.8" font-family="Times,serif" font-size="14.00">(1&#45;p)n</text>
</g>
<!-- S3001&#45;&gt;S4000 -->
<g id="edge14" class="edge">
<title>S3001&#45;&gt;S4000</title>
<path fill="none" stroke="black" d="M357.8,-179.78C363.72,-152.49 378.74,-101.22 411.78,-73 422.89,-63.51 437.34,-57.61 451.37,-53.94"/>
<polygon fill="black" stroke="black" points="451.99,-57.39 460.98,-51.78 450.46,-50.56 451.99,-57.39"/>
<text text-anchor="middle" x="427.78" y="-76.8" font-family="Times,serif" font-size="14.00">mu</text>
</g>
<!-- S3001&#45;&gt;S2011 -->
<g id="edge7" class="edge">
<title>S3001&#45;&gt;S2011</title>
<path fill="none" stroke="black" d="M393.77,-196.24C409.4,-196.11 427.51,-196.68 443.78,-199 448.44,-199.66 453.25,-200.6 458.02,-201.69"/>
<polygon fill="black" stroke="black" points="456.95,-205.03 467.5,-204.08 458.66,-198.24 456.95,-205.03"/>
<text text-anchor="middle" x="427.78" y="-202.8" font-family="Times,serif" font-size="14.00">3a</text>
</g>
<!-- S0112 -->
<g id="node5" class="node">
<title>S0112</title>
<ellipse fill="none" stroke="black" cx="502.07" cy="-388" rx="40.09" ry="18"/>
<text text-anchor="middle" x="502.07" y="-384.3" font-family="Times,serif" font-size="14.00">S0112</text>
</g>
<!-- S0013 -->
<g id="node6" class="node">
<title>S0013</title>
<ellipse fill="none" stroke="black" cx="204.89" cy="-487" rx="40.09" ry="18"/>
<text text-anchor="middle" x="204.89" y="-483.3" font-family="Times,serif" font-size="14.00">S0013</text>
</g>
<!-- S0112&#45;&gt;S0013 -->
<g id="edge6" class="edge">
<title>S0112&#45;&gt;S0013</title>
<path fill="none" stroke="black" d="M476.36,-402.13C438.65,-422.93 363.86,-461.26 295.19,-479 282.84,-482.19 269.25,-484.16 256.48,-485.36"/>
<polygon fill="black" stroke="black" points="256.24,-481.86 246.55,-486.14 256.79,-488.84 256.24,-481.86"/>
<text text-anchor="middle" x="353.48" y="-478.8" font-family="Times,serif" font-size="14.00">(1&#45;p)n</text>
</g>
<!-- S1111 -->
<g id="node8" class="node">
<title>S1111</title>
<ellipse fill="none" stroke="black" cx="650.67" cy="-233" rx="40.09" ry="18"/>
<text text-anchor="middle" x="650.67" y="-229.3" font-family="Times,serif" font-size="14.00">S1111</text>
</g>
<!-- S0112&#45;&gt;S1111 -->
<g id="edge24" class="edge">
<title>S0112&#45;&gt;S1111</title>
<path fill="none" stroke="black" d="M535,-377.55C553.53,-370.21 576.31,-358.85 592.37,-343 615.53,-320.15 631.31,-285.96 640.35,-261.77"/>
<polygon fill="black" stroke="black" points="643.58,-263.14 643.64,-252.55 636.99,-260.79 643.58,-263.14"/>
<text text-anchor="middle" x="576.37" y="-368.8" font-family="Times,serif" font-size="14.00">2mu</text>
</g>
<!-- S1012 -->
<g id="node9" class="node">
<title>S1012</title>
<ellipse fill="none" stroke="black" cx="353.48" cy="-379" rx="40.09" ry="18"/>
<text text-anchor="middle" x="353.48" y="-375.3" font-family="Times,serif" font-size="14.00">S1012</text>
</g>
<!-- S0013&#45;&gt;S1012 -->
<g id="edge28" class="edge">
<title>S0013&#45;&gt;S1012</title>
<path fill="none" stroke="black" d="M235.55,-474.89C253.7,-466.73 276.86,-454.94 295.19,-441 308.76,-430.68 321.83,-416.93 332.05,-405.01"/>
<polygon fill="black" stroke="black" points="334.6,-407.42 338.3,-397.49 329.22,-402.94 334.6,-407.42"/>
<text text-anchor="middle" x="279.19" y="-463.8" font-family="Times,serif" font-size="14.00">3mu</text>
</g>
<!-- S2011&#45;&gt;S3010 -->
<g id="edge15" class="edge">
<title>S2011&#45;&gt;S3010</title>
<path fill="none" stroke="black" d="M513.5,-197.44C524.02,-180.55 541.4,-154.89 560.37,-136 572.78,-123.64 578.31,-123.45 592.37,-113 601.64,-106.12 611.64,-98.49 620.66,-91.56"/>
<polygon fill="black" stroke="black" points="622.66,-94.44 628.44,-85.56 618.38,-88.9 622.66,-94.44"/>
<text text-anchor="middle" x="576.37" y="-139.8" font-family="Times,serif" font-size="14.00">mu</text>
</g>
<!-- S2011&#45;&gt;S3001 -->
<g id="edge9" class="edge">
<title>S2011&#45;&gt;S3001</title>
<path fill="none" stroke="black" d="M461.79,-216.76C446.15,-216.89 428.05,-216.32 411.78,-214 407.12,-213.34 402.3,-212.4 397.54,-211.31"/>
<polygon fill="black" stroke="black" points="398.61,-207.97 388.06,-208.92 396.9,-214.76 398.61,-207.97"/>
<text text-anchor="middle" x="427.78" y="-219.8" font-family="Times,serif" font-size="14.00">pn</text>
</g>
<!-- S2011&#45;&gt;S1111 -->
<g id="edge8" class="edge">
<title>S2011&#45;&gt;S1111</title>
<path fill="none" stroke="black" d="M532.73,-203.12C550.26,-197.73 572.78,-193.62 592.37,-199 601.81,-201.59 611.27,-206.18 619.7,-211.17"/>
<polygon fill="black" stroke="black" points="617.81,-214.12 628.13,-216.53 621.57,-208.21 617.81,-214.12"/>
<text text-anchor="middle" x="576.37" y="-202.8" font-family="Times,serif" font-size="14.00">2a</text>
</g>
<!-- S2002 -->
<g id="node10" class="node">
<title>S2002</title>
<ellipse fill="none" stroke="black" cx="204.89" cy="-362" rx="40.09" ry="18"/>
<text text-anchor="middle" x="204.89" y="-358.3" font-family="Times,serif" font-size="14.00">S2002</text>
</g>
<!-- S2011&#45;&gt;S2002 -->
<g id="edge13" class="edge">
<title>S2011&#45;&gt;S2002</title>
<path fill="none" stroke="black" d="M474.21,-228.38C421.2,-254.78 303.08,-313.6 242.81,-343.61"/>
<polygon fill="black" stroke="black" points="241.35,-340.43 233.96,-348.02 244.47,-346.7 241.35,-340.43"/>
<text text-anchor="middle" x="353.48" y="-313.8" font-family="Times,serif" font-size="14.00">(1&#45;p)n</text>
</g>
<!-- S1111&#45;&gt;S2110 -->
<g id="edge16" class="edge">
<title>S1111&#45;&gt;S2110</title>
<path fill="none" stroke="black" d="M678.4,-219.54C695.35,-210 716.85,-195.91 731.96,-179 753.52,-154.89 769.51,-121.2 779.04,-97.47"/>
<polygon fill="black" stroke="black" points="782.19,-99.03 782.53,-88.44 775.66,-96.51 782.19,-99.03"/>
<text text-anchor="middle" x="720.46" y="-201.8" font-family="Times,serif" font-size="14.00">mu</text>
</g>
<!-- S1111&#45;&gt;S2011 -->
<g id="edge10" class="edge">
<title>S1111&#45;&gt;S2011</title>
<path fill="none" stroke="black" d="M611.47,-228.31C593.46,-226.1 571.76,-223.43 552.51,-221.07"/>
<polygon fill="black" stroke="black" points="553.06,-217.61 542.71,-219.87 552.21,-224.56 553.06,-217.61"/>
<text text-anchor="middle" x="576.37" y="-228.8" font-family="Times,serif" font-size="14.00">pn</text>
</g>
<!-- S1111&#45;&gt;S1012 -->
<g id="edge11" class="edge">
<title>S1111&#45;&gt;S1012</title>
<path fill="none" stroke="black" d="M622.86,-246.26C569.96,-272.42 452.07,-330.73 391.69,-360.6"/>
<polygon fill="black" stroke="black" points="390.23,-357.41 382.82,-364.99 393.33,-363.69 390.23,-357.41"/>
<text text-anchor="middle" x="502.07" y="-330.8" font-family="Times,serif" font-size="14.00">(1&#45;p)n</text>
</g>
<!-- S1012&#45;&gt;S0112 -->
<g id="edge18" class="edge">
<title>S1012&#45;&gt;S0112</title>
<path fill="none" stroke="black" d="M385.15,-367.68C402.42,-362.76 424.35,-358.95 443.78,-363 450.89,-364.48 458.2,-366.9 465.12,-369.66"/>
<polygon fill="black" stroke="black" points="463.63,-372.83 474.19,-373.6 466.41,-366.41 463.63,-372.83"/>
<text text-anchor="middle" x="427.78" y="-366.8" font-family="Times,serif" font-size="14.00">a</text>
</g>
<!-- S1012&#45;&gt;S0112 -->
<g id="edge20" class="edge">
<title>S1012&#45;&gt;S0112</title>
<path fill="none" stroke="black" d="M404.71,-382.08C423.44,-383.23 444.41,-384.52 461.99,-385.6"/>
<polygon fill="black" stroke="black" points="405.09,-378.6 394.89,-381.48 404.66,-385.59 405.09,-378.6"/>
<text text-anchor="middle" x="427.78" y="-387.8" font-family="Times,serif" font-size="14.00">pn</text>
</g>
<!-- S1012&#45;&gt;S2011 -->
<g id="edge23" class="edge">
<title>S1012&#45;&gt;S2011</title>
<path fill="none" stroke="black" d="M364.9,-361.44C375.43,-344.55 392.81,-318.89 411.78,-300 424.19,-287.64 430.66,-288.6 443.78,-277 456.47,-265.78 469.37,-252.06 479.72,-240.38"/>
<polygon fill="black" stroke="black" points="482.16,-242.9 486.09,-233.06 476.88,-238.31 482.16,-242.9"/>
<text text-anchor="middle" x="427.78" y="-303.8" font-family="Times,serif" font-size="14.00">2mu</text>
</g>
<!-- S1003 -->
<g id="node11" class="node">
<title>S1003</title>
<ellipse fill="none" stroke="black" cx="56.3" cy="-463" rx="40.09" ry="18"/>
<text text-anchor="middle" x="56.3" y="-459.3" font-family="Times,serif" font-size="14.00">S1003</text>
</g>
<!-- S1012&#45;&gt;S1003 -->
<g id="edge21" class="edge">
<title>S1012&#45;&gt;S1003</title>
<path fill="none" stroke="black" d="M321.4,-390.31C312.93,-393.27 303.74,-396.36 295.19,-399 228.98,-419.43 151.29,-439.64 103.17,-451.72"/>
<polygon fill="black" stroke="black" points="102.51,-448.27 93.66,-454.09 104.21,-455.06 102.51,-448.27"/>
<text text-anchor="middle" x="204.89" y="-440.8" font-family="Times,serif" font-size="14.00">(1&#45;p)n</text>
</g>
<!-- S2002&#45;&gt;S3001 -->
<g id="edge22" class="edge">
<title>S2002&#45;&gt;S3001</title>
<path fill="none" stroke="black" d="M209.82,-343.9C216.48,-317.23 232.36,-267.28 263.19,-237 275.35,-225.06 291.76,-216.47 307.21,-210.46"/>
<polygon fill="black" stroke="black" points="308.03,-213.88 316.25,-207.2 305.66,-207.29 308.03,-213.88"/>
<text text-anchor="middle" x="279.19" y="-240.8" font-family="Times,serif" font-size="14.00">2mu</text>
</g>
<!-- S2002&#45;&gt;S1012 -->
<g id="edge17" class="edge">
<title>S2002&#45;&gt;S1012</title>
<path fill="none" stroke="black" d="M245.18,-360.24C260.81,-360.11 278.92,-360.68 295.19,-363 299.84,-363.66 304.66,-364.6 309.43,-365.69"/>
<polygon fill="black" stroke="black" points="308.35,-369.03 318.91,-368.08 310.07,-362.24 308.35,-369.03"/>
<text text-anchor="middle" x="279.19" y="-366.8" font-family="Times,serif" font-size="14.00">2a</text>
</g>
<!-- S2002&#45;&gt;S1012 -->
<g id="edge19" class="edge">
<title>S2002&#45;&gt;S1012</title>
<path fill="none" stroke="black" d="M248.94,-375.31C253.71,-376.4 258.53,-377.34 263.19,-378 279.45,-380.32 297.56,-380.89 313.19,-380.76"/>
<polygon fill="black" stroke="black" points="250.02,-371.97 239.46,-372.92 248.31,-378.76 250.02,-371.97"/>
<text text-anchor="middle" x="279.19" y="-383.8" font-family="Times,serif" font-size="14.00">pn</text>
</g>
<!-- S1003&#45;&gt;S0013 -->
<g id="edge25" class="edge">
<title>S1003&#45;&gt;S0013</title>
<path fill="none" stroke="black" d="M96.3,-460.33C112.05,-460.06 130.32,-460.76 146.59,-464 153.13,-465.3 159.86,-467.32 166.32,-469.64"/>
<polygon fill="black" stroke="black" points="164.84,-472.82 175.43,-473.2 167.39,-466.3 164.84,-472.82"/>
<text text-anchor="middle" x="130.59" y="-467.8" font-family="Times,serif" font-size="14.00">a</text>
</g>
<!-- S1003&#45;&gt;S0013 -->
<g id="edge26" class="edge">
<title>S1003&#45;&gt;S0013</title>
<path fill="none" stroke="black" d="M100.59,-475.99C105.29,-477.13 110.02,-478.16 114.59,-479 130.82,-481.97 148.92,-483.85 164.56,-485.04"/>
<polygon fill="black" stroke="black" points="101.8,-472.69 91.24,-473.56 100.04,-479.46 101.8,-472.69"/>
<text text-anchor="middle" x="130.59" y="-486.8" font-family="Times,serif" font-size="14.00">pn</text>
</g>
<!-- S1003&#45;&gt;S2002 -->
<g id="edge27" class="edge">
<title>S1003&#45;&gt;S2002</title>
<path fill="none" stroke="black" d="M70.06,-445.64C80.75,-432.08 97.04,-413.49 114.59,-401 128.71,-390.96 145.81,-382.71 161.26,-376.43"/>
<polygon fill="black" stroke="black" points="162.17,-379.83 170.22,-372.95 159.63,-373.31 162.17,-379.83"/>
<text text-anchor="middle" x="130.59" y="-404.8" font-family="Times,serif" font-size="14.00">3mu</text>
</g>
</g>
</svg>
